<svg width="28" height="28" viewBox="0 0 28 28" fill="none" xmlns="http://www.w3.org/2000/svg">
<path d="M21.8269 4.07782C19.6192 2.97938 16.9177 2.33325 14 2.33325C11.0823 2.33325 8.38075 2.97938 6.17302 4.07782C5.09038 4.61649 4.54905 4.88583 4.02453 5.73266C3.5 6.57951 3.5 7.39948 3.5 9.03941V13.1099C3.5 19.7405 8.79942 23.4271 11.8685 25.006C12.7245 25.4464 13.1524 25.6666 14 25.6666C14.8476 25.6666 15.2755 25.4464 16.1314 25.006C19.2005 23.4271 24.5 19.7405 24.5 13.1099V9.03941C24.5 7.39949 24.5 6.57952 23.9755 5.73266C23.4509 4.88581 22.9096 4.61649 21.8269 4.07782Z" stroke="#181D27" stroke-width="1.75" stroke-linecap="round" stroke-linejoin="round"/>
<path d="M10.5 13.4166C10.5 13.4166 12.1425 13.7105 12.8333 15.7499C12.8333 15.7499 14.5833 12.2499 17.5 11.0833" stroke="#181D27" stroke-width="1.75" stroke-linecap="round" stroke-linejoin="round"/>
</svg>
